<?xml version="1.0" encoding="UTF-8" standalone="no"?>
<svg
   width="1024"
   height="1024"
   version="1.1"
   id="svg9"
   sodipodi:docname="icon_dark.svg"
   inkscape:version="1.4.2 (ebf0e940d0, 2025-05-08)"
   xmlns:inkscape="http://www.inkscape.org/namespaces/inkscape"
   xmlns:sodipodi="http://sodipodi.sourceforge.net/DTD/sodipodi-0.dtd"
   xmlns="http://www.w3.org/2000/svg"
   xmlns:svg="http://www.w3.org/2000/svg">
  <defs
     id="defs9" />
  <sodipodi:namedview
     id="namedview9"
     pagecolor="#ffffff"
     bordercolor="#000000"
     borderopacity="0.25"
     inkscape:showpageshadow="2"
     inkscape:pageopacity="0.0"
     inkscape:pagecheckerboard="0"
     inkscape:deskcolor="#d1d1d1"
     inkscape:zoom="0.859375"
     inkscape:cx="512.58182"
     inkscape:cy="512"
     inkscape:window-width="1920"
     inkscape:window-height="1124"
     inkscape:window-x="0"
     inkscape:window-y="0"
     inkscape:window-maximized="1"
     inkscape:current-layer="svg9" />
  <path
     d="m 252.20502,54.891258 7.02271,-0.0071 c 6.39107,-0.006 12.78316,-0.006 19.17423,-0.004 6.19834,0 12.39669,-0.005 18.59504,-0.0091 14.23209,-0.01013 28.46418,-0.01215 42.69627,-0.01317 a 132401.28,132914.59 0 0 0 42.50556,-0.0081 l 2.39034,-10e-4 a 221622.88,222482.09 0 0 1 89.37006,-0.01013 c 26.42093,10e-4 52.84186,-0.006 79.26179,-0.02026 a 161041.29,161665.64 0 0 1 98.7034,-0.0233 h 2.36915 c 12.53291,0 25.06683,-0.006 37.59975,-0.0152 12.61364,-0.0081 25.22728,-0.01013 37.84091,-0.003 6.82293,0.004 13.64485,0.004 20.46778,-0.005 6.26091,-0.0081 12.52181,-0.006 18.78272,0.002 2.24908,0.002 4.49816,0 6.74826,-0.005 20.57371,-0.04862 41.33208,0.583443 61.43964,5.322905 l 2.28036,0.53381 c 41.05663,9.820279 76.7423,32.347664 99.97072,68.414787 20.6958,33.78297 26.22114,71.22563 26.16363,110.26163 0.003,2.41075 0.008,4.8215 0.0131,7.23225 0.0111,5.8952 0.0131,11.78839 0.0101,17.68257 a 12495.582,12544.026 0 0 0 0.0171,21.2106 c 0.0202,14.66001 0.0253,29.31802 0.0263,43.97702 a 69781.593,70052.128 0 0 0 0.0172,43.80381 l 10e-4,2.46343 c 0.0121,22.85557 0.0202,45.71114 0.0202,68.5657 v 2.60827 l -10e-4,13.08391 v 7.87851 c -0.002,27.21722 0.0131,54.43443 0.0404,81.65064 a 84779.778,85108.459 0 0 1 0.0464,101.7308 v 2.44316 c 0,12.90463 0.0131,25.80926 0.0303,38.7149 0.0171,13.00187 0.0201,26.00373 0.006,39.0056 -0.007,7.02664 -0.007,14.05226 0.0101,21.07891 0.20886,88.48076 0.20886,88.48076 -19.67873,127.1136 l -0.98076,1.91139 c -13.53587,25.89231 -33.1369,46.57212 -58.55084,60.88978 l -1.80209,1.01597 c -24.51895,13.60253 -51.35458,18.51823 -78.91873,21.26831 l -2.66983,0.27755 c -11.06381,1.00583 -22.1276,0.88225 -33.22671,0.87718 l -6.94704,0.0102 c -6.34061,0.007 -12.68225,0.0102 -19.02286,0.0102 -6.14488,0.002 -12.28774,0.008 -18.43261,0.0142 -16.4509,0.0162 -32.9018,0.0223 -49.35371,0.0273 -7.79461,0.002 -15.58921,0.006 -23.3828,0.0102 a 226247.54,227124.67 0 0 1 -100.33597,0.0303 h -2.5306 c -27.05157,0.003 -54.10112,0.0203 -81.15167,0.0425 a 103971.4,104374.49 0 0 1 -95.40292,0.0405 h -2.352 c -12.42697,0.002 -24.85495,0.0132 -37.28192,0.0273 -12.52182,0.0152 -25.04364,0.0182 -37.56444,0.0101 -6.76844,-0.004 -13.53588,-0.003 -20.30431,0.0112 -96.94065,0.19245 -96.94065,0.19245 -140.02338,-23.67301 l -3.2591,-1.76856 C 97.09391,920.58303 74.485023,887.55165 63.014594,848.88435 c -3.885698,-14.11 -5.686781,-28.71633 -6.815863,-43.28215 l -0.25528,-3.2373 c -0.843532,-11.915 -0.898019,-23.78746 -0.887929,-35.72779 l -0.0081,-6.82709 c -0.006,-6.2163 -0.006,-12.43261 -0.004,-18.64789 0,-6.0279 -0.005,-12.05682 -0.0091,-18.08472 -0.01009,-13.84461 -0.01211,-27.68923 -0.01311,-41.53486 a 124506.97,124989.67 0 0 0 -0.0081,-41.37482 l -10e-4,-2.3277 a 208532.86,209341.31 0 0 1 -0.01009,-79.59339 v -7.44295 c 0.001,-25.70795 -0.006,-51.4149 -0.02018,-77.12185 a 151232.78,151819.09 0 0 1 -0.02321,-98.39626 c 0,-12.18747 -0.006,-24.37597 -0.01514,-36.56344 -0.0081,-12.2827 -0.0091,-24.56539 -0.003,-36.84808 0.004,-6.63566 0.004,-13.27232 -0.005,-19.90899 C 54.774018,152.78713 54.774018,152.78713 101.6042,104.66017 l 2.40447,-2.60321 c 38.5008,-40.691104 95.37366,-47.206219 148.19635,-47.165702 z m 142.0747,194.047502 -2.21479,1.60041 c -1.53974,1.11421 -3.07747,2.23146 -4.61117,3.35277 -2.27027,1.65917 -4.54761,3.30821 -6.82697,4.95319 a 5253.2007,5273.5668 0 0 0 -13.65291,9.90841 c -9.58358,6.97193 -19.18532,13.91146 -28.86576,20.74768 -7.48787,5.29555 -14.90813,10.68632 -22.32536,16.08114 -3.78581,2.75211 -7.57767,5.49916 -11.36751,8.2462 l -4.54055,3.292 -9.08109,6.58399 a 433535620,435216390 0 0 1 -6.80174,4.9309 c -3.83423,2.78048 -7.66848,5.56095 -11.50271,8.34345 a 4093.4454,4109.3152 0 0 1 -22.23859,16.04874 c -7.87027,5.63589 -15.69616,11.33155 -23.52911,17.0181 -17.3923,12.62708 -17.3923,12.62708 -25.22525,18.23259 a 3023.1489,3034.8693 0 0 0 -22.92774,16.55925 c -1.52966,1.11422 -3.06336,2.22438 -4.59907,3.3315 -2.20468,1.58928 -4.39827,3.19274 -6.59085,4.79922 l -1.99179,1.42215 c -5.4083,4.00205 -9.67641,8.06894 -10.97501,14.87577 0.0827,7.38117 0.26841,13.37462 5.71504,18.77451 2.3076,1.69462 4.45075,2.81491 7.06307,4.05169 l 2.01802,1.01292 c 8.73601,1.29755 14.16953,-2.39252 21.18922,-7.09046 l -0.0111,3.60702 a 51029.671,51227.507 0 0 0 -0.21088,95.31697 l -0.003,2.10283 c -0.0171,11.21912 -0.0494,22.43825 -0.0868,33.65838 -0.0373,11.51997 -0.0595,23.04094 -0.0676,34.56091 -0.006,6.4675 -0.0181,12.93501 -0.0474,19.40252 -0.0273,6.09171 -0.0353,12.18241 -0.0303,18.27412 0,2.23147 -0.008,4.46294 -0.0243,6.69541 -0.27244,20.07916 -0.27244,20.07916 9.7087,36.92608 8.73499,7.80962 18.23886,8.04665 29.37329,7.99499 a 2876.5659,2887.7181 0 0 0 15.33897,-0.008 c 4.04311,-0.0101 8.08722,-0.007 12.13033,-0.005 7.00253,10e-4 14.00506,-0.005 21.00759,-0.0172 10.12339,-0.0162 20.2468,-0.0213 30.37121,-0.0243 16.42567,-0.004 32.85135,-0.0172 49.27803,-0.0365 15.95447,-0.0182 31.90995,-0.0335 47.86442,-0.0415 l 2.98061,-0.002 14.80521,-0.007 c 40.93151,-0.0213 81.86301,-0.0567 122.79452,-0.10231 l -0.0161,1.8658 -0.0121,2.46445 -0.0151,2.43607 c 0.4036,21.63601 12.27259,45.16214 27.28666,60.08653 l 2.52253,2.65893 2.52252,2.40568 1.86061,1.81617 c 23.6613,22.24681 55.90119,29.49021 87.32984,28.85613 31.58404,-1.08991 60.63848,-13.31082 82.42806,-36.42974 15.64975,-17.39694 27.43195,-41.21581 27.25538,-64.94856 l -0.005,-2.22337 c -0.005,-2.32162 -0.0182,-4.64323 -0.0303,-6.96486 -0.006,-1.58218 -0.0101,-3.16537 -0.0141,-4.74756 -0.0111,-3.86227 -0.0283,-7.72454 -0.0494,-11.5858 l 1.73348,-0.14788 c 17.62438,-1.70273 34.70188,-10.21026 47.70801,-22.13641 l 1.55287,-1.41201 c 17.78886,-16.37489 30.65676,-39.24667 31.86758,-63.89714 0.35213,-11.97578 0.42378,-23.4451 -3.15013,-34.97012 l -0.59129,-1.91443 c -5.37398,-16.91782 -14.11907,-30.22964 -26.65199,-42.65414 l -2.1048,-2.10891 c -19.89768,-18.66815 -46.58801,-25.15389 -73.05335,-24.3557 -24.71973,1.25804 -45.92307,13.32195 -63.07625,30.5163 l -2.22688,2.20006 c -16.47613,17.35541 -24.58959,41.79722 -24.36256,65.4682 0.82436,28.52084 12.85479,52.97278 33.07738,72.80781 3.96541,3.58676 8.19114,6.55563 12.68325,9.43639 0.76181,0.51861 1.52361,1.03723 2.31064,1.57003 5.04707,3.27984 10.25356,5.65615 15.85155,7.7995 l 1.95748,0.75563 c 5.29529,1.94178 10.66221,3.06106 16.2047,4.05574 0.0595,3.98787 0.0948,7.97676 0.12613,11.96565 l 0.0504,3.37607 c 0.13016,21.96724 -7.59582,42.24594 -22.85408,58.12957 -18.53855,17.88922 -43.52164,22.24174 -68.16066,21.95711 -19.28521,-0.50038 -37.01452,-5.54677 -52.44129,-17.4334 -0.80721,-0.61282 -1.61239,-1.22564 -2.44382,-1.85567 -14.46617,-11.89272 -22.3193,-29.96832 -25.86496,-47.99731 l -0.54286,-2.75211 -0.40965,-2.0927 3.82314,0.0638 c 4.71914,0.074 9.43929,0.12055 14.15944,0.15903 2.03618,0.0203 4.07136,0.0476 6.10653,0.083 2.94126,0.0497 5.88051,0.072 8.82177,0.0902 l 2.71828,0.0628 c 7.96816,0.003 16.59418,-2.16361 22.52313,-7.88155 9.20418,-11.29712 8.26177,-23.30835 8.12051,-37.17222 -0.002,-2.35706 0,-4.71413 0.003,-7.0712 0.002,-6.37027 -0.0343,-12.73953 -0.0767,-19.10878 -0.0373,-6.66705 -0.0404,-13.33512 -0.0484,-20.00217 a 9673.0397,9710.541 0 0 0 -0.10797,-33.54392 13159.674,13210.692 0 0 1 -0.12915,-36.68804 l -0.0232,-10.70051 c -0.0626,-29.5368 -0.16951,-59.07361 -0.30471,-88.61143 l 1.84446,1.25806 2.44383,1.65409 2.41153,1.6379 c 5.3639,3.44089 9.16787,4.2411 15.49839,3.55333 6.87338,-2.18487 10.98005,-5.74732 14.44096,-12.02845 2.08865,-4.56828 2.52252,-8.26342 1.17853,-13.19129 -4.34178,-10.86662 -17.43167,-17.33312 -26.67319,-23.60512 a 348.73612,350.08813 0 0 1 -16.05546,-11.58295 c -10.49875,-7.95043 -21.2669,-15.5443 -32.02295,-23.13818 -5.97839,-4.22591 -11.90431,-8.52171 -17.82518,-12.82866 a 1388.4253,1393.808 0 0 0 -15.36722,-10.99526 c -6.68975,-4.72124 -13.326,-9.51134 -19.94813,-14.32779 A 1388.4253,1393.808 0 0 0 533.965,319.39973 1528.4637,1534.3895 0 0 1 516.30733,306.7382 c -8.69263,-6.32064 -17.45386,-12.542 -26.23426,-18.73906 a 3037.8563,3049.6337 0 0 1 -40.07284,-28.79737 1848.7398,1855.9072 0 0 0 -13.4047,-9.69366 l -1.85457,-1.32896 c -15.4096,-10.94766 -25.3645,-10.36219 -40.4613,0.7597 z"
     fill="#FEFEFE"
     id="path1"
     style="fill:#227ce2;fill-opacity:1;stroke:#227ce2;stroke-width:1.01096;stroke-opacity:1" />
  <path
     d="m246.222 24.74 7.128-.012c5.797-.01 11.593-.01 17.39-.005 6.956.004 13.912-.003 20.868-.01 14.419-.016 28.837-.018 43.256-.015a60827.12 60827.12 0 0 0 45.508-.01c22.48-.008 44.96-.012 67.441-.008h2.564a981921.403 981921.403 0 0 1 20.609.005c26.77.005 53.539-.003 80.308-.021a109968.413 109968.413 0 0 1 102.476-.026c11.912 0 23.824-.006 35.736-.016 13.569-.012 27.137-.014 40.705-.002 6.91.006 13.82.008 20.73-.005C815.65 24.51 881.572 28.255 932 74l2.734 2.406A420.268 420.268 0 0 1 942 83l2.008 1.844c39.294 37.544 53.808 92.107 55.164 144.865.3 15.229.243 30.463.22 45.694-.007 6.206.002 12.411.01 18.617.015 13.45.014 26.902.005 40.353a37283.667 37283.667 0 0 0-.002 47.257c.01 29.819 0 59.637-.015 89.456-.015 26.415-.013 52.83.001 79.245a104838.887 104838.887 0 0 1 .01 98.844v2.373c-.004 11.756 0 23.513.008 35.27.009 13.385.006 26.772-.01 40.158-.008 6.815-.011 13.63-.001 20.445.097 72.016-5.672 140.175-58.585 194.141C929.482 952.885 916.878 962.04 903 970l-3.297 1.95C882.19 982.01 862.723 988.071 843 992l-2.284.46c-10.5 2.072-21.068 3.48-31.716 4.54l-2.24.256c-10.855 1.096-21.75.89-32.647.884l-7.023.01c-5.744.007-11.488.01-17.233.01-6.886 0-13.772.007-20.658.014-16.643.016-33.285.022-49.928.027-7.883.002-15.767.006-23.65.01a233408.602 233408.602 0 0 1-104.024.03c-27.363.003-54.726.02-82.09.042a107335.576 107335.576 0 0 1-98.857.04c-12.572.002-25.145.013-37.717.027-12.664.015-25.328.018-37.992.01-6.847-.004-13.694-.003-20.542.011-53.666.104-53.666.104-76.399-3.371l-3.087-.467c-51.584-7.97-99.303-32.523-130.725-75.033-19.99-27.823-30.298-58.498-35.438-92.188l-.495-3.197c-2.47-17.18-2.402-34.488-2.389-51.806l-.007-7.065c-.005-5.756-.006-11.512-.005-17.268.001-6.905-.003-13.81-.008-20.715-.01-14.314-.012-28.628-.013-42.942a135228.187 135228.187 0 0 0-.01-45.166c-.005-22.306-.01-44.613-.009-66.92v-23.002c.001-26.574-.006-53.149-.02-79.723a164394.842 164394.842 0 0 1-.023-99.304v-2.384c0-12.604-.006-25.208-.015-37.812-.008-12.69-.01-25.38-.003-38.07.004-6.861.004-13.723-.005-20.584C25.663 199.767 30.636 135 83.313 81.375c28.744-28.574 66.602-45.55 106.187-52.625l2.544-.458c17.99-2.98 35.981-3.586 54.178-3.553ZM109 109l-2.582 2.39C95.372 121.898 87.038 134.553 80 148l-1.836 3.508c-21.118 41.921-17.472 92.606-17.425 138.171.004 5.95-.002 11.898-.007 17.847-.01 12.89-.01 25.778-.004 38.667a51301.627 51301.627 0 0 1 .002 45.272c-.006 28.561 0 57.123.01 85.684.01 25.308.009 50.615 0 75.923a144403.05 144403.05 0 0 0-.008 94.708v2.272c.003 11.267 0 22.533-.005 33.8-.005 12.82-.004 25.641.007 38.462.005 6.53.007 13.058 0 19.587-.058 62.55 1.302 125.298 47.802 172.654 23.985 23.68 56.338 36.992 89.152 42.632l2.67.47c18.7 3.021 37.526 3.64 56.428 3.604l6.912.011c6.264.01 12.528.008 18.791.004 6.084-.002 12.167.005 18.25.012 13.96.015 27.92.017 41.88.014a57020.942 57020.942 0 0 1 44.063.01c21.769.008 43.537.012 65.306.008h2.482c4.15-.002 8.3-.002 12.451-.003h2.498l5-.002c25.916-.005 51.834.003 77.75.021a103126.837 103126.837 0 0 0 96.91.027h2.327c11.534-.002 23.067.005 34.6.015 13.136.012 26.271.014 39.407.002 6.689-.006 13.378-.008 20.068.005 62.92.105 125.955-2.735 173.417-49.182C934.936 895.568 947.054 873.985 954 852l.67-2.114c10.014-32.744 8.92-67.463 8.843-101.297-.016-6.98-.007-13.959.002-20.938.017-13.666.012-27.332-.003-40.997-.013-11.955-.018-23.91-.016-35.864v-2.415l.003-9.708a82697.7 82697.7 0 0 0-.035-90.799c-.023-26.831-.028-53.663-.018-80.495l.008-20.635v-2.567a82428.577 82428.577 0 0 0-.015-79.573c-.005-11.947-.004-23.894 0-35.84.006-13.59 0-27.18-.02-40.77-.01-6.924-.016-13.847-.008-20.77.008-6.353 0-12.706-.017-19.058-.004-2.283-.003-4.566.003-6.848C963.531 190.849 951.19 144.607 915 108c-38.364-37.916-90.239-46.174-141.996-46.134a16543.084 16543.084 0 0 0-25.947-.012c-6.139.001-12.278-.004-18.417-.008-14.1-.01-28.2-.012-42.3-.013a131137.738 131137.738 0 0 1-44.487-.01c-21.968-.005-43.936-.01-65.904-.009h-22.664c-26.177.001-52.355-.006-78.533-.02a159448.894 159448.894 0 0 0-97.796-.023h-2.347c-12.416 0-24.831-.006-37.247-.015-12.501-.008-25.002-.01-37.504-.003-6.76.004-13.52.004-20.279-.005a6970.43 6970.43 0 0 0-18.621.002c-2.227.002-4.454 0-6.68-.005C200.073 61.617 149.245 70.158 109 109Z"
     fill="#227CE2"
     id="path3" />
  <path
     d="m419 244.063 2.313.222c7.23 1.924 13.132 6.248 19.062 10.653l4.77 3.492 2.44 1.796c3.81 2.8 7.643 5.569 11.478 8.337l2.255 1.63a1705.92 1705.92 0 0 0 17.288 12.288c5.924 4.172 11.796 8.412 17.664 12.664 5.05 3.655 10.13 7.269 15.23 10.855 6.63 4.661 13.207 9.39 19.77 14.145 5.05 3.655 10.13 7.269 15.23 10.855 6.63 4.661 13.207 9.39 19.77 14.145 5.05 3.655 10.13 7.269 15.23 10.855 6.63 4.661 13.207 9.39 19.77 14.145 5.05 3.655 10.13 7.268 15.23 10.855 8.12 5.712 16.17 11.516 24.208 17.341 3.113 2.253 6.233 4.497 9.352 6.741 2.976 2.144 5.945 4.297 8.913 6.452a956.918 956.918 0 0 0 5.683 4.071l3.219 2.332 2.742 1.965c4.51 3.97 7.108 8.295 7.696 14.286-.491 5.988-2.848 10.03-6.625 14.625-5.01 4.076-9.943 5.82-16.348 5.613-5.9-1.074-10.655-4.89-15.34-8.426l.017 3.652a35456.07 35456.07 0 0 1 .313 96.519l.004 2.13c.026 11.36.074 22.72.129 34.08.056 11.666.089 23.332.102 34.998.007 6.549.026 13.097.07 19.646.04 6.17.053 12.338.044 18.507.001 2.259.013 4.518.036 6.777.22 22.69.22 22.69-6.715 31.691-6.619 6.544-14.248 9.342-23.462 9.34l-2.726-.047-2.857-.013c-2.986-.017-5.97-.054-8.955-.092-2.035-.016-4.07-.03-6.105-.042-4.966-.032-9.93-.084-14.895-.146.615 2.868 1.235 5.735 1.86 8.602l.52 2.44c4.284 19.574 15.816 36.516 32.625 47.474 22.153 13.675 51.111 15.919 76.198 10.46 20.271-5.213 38.1-16.256 48.926-34.488 8.39-14.737 11.059-28.666 10.933-45.488l-.013-3.504c-.012-2.832-.028-5.664-.049-8.496-1.027-.23-2.055-.461-3.113-.7-24.359-5.652-47.157-19.28-61.168-40.495C674.835 627.572 670.064 616.83 667 604l-.746-3.074c-4.794-23.704.604-48.923 13.496-69.239 15.541-21.914 36.772-36.934 63.125-42.625 26.696-4.272 54.065 1.303 76.2 17.137A157.564 157.564 0 0 1 827 513l2.36 2.113c16.472 15.536 28.165 39.168 28.843 61.977.353 26.116-5.6 51.431-24.142 70.787-1.35 1.379-2.705 2.751-4.061 4.123l-1.988 2.207C816.102 667.137 797.219 676.121 780 679h-4l.063 2.76c.677 33.871.677 33.871-4.063 47.24l-1.133 3.215C769.7 735.219 768.405 738.1 767 741l-1.523 3.168c-12.812 25.173-34.674 44.391-61.414 53.594-34.107 11.065-70.879 8.473-102.942-7.52-6.516-3.425-12.343-7.707-18.121-12.242l-2.328-1.805C562.145 760.951 549.56 735.698 547 712a211.672 211.672 0 0 1-.025-4.728l.011-2.432L547 703l-2.085.003a138596.393 138596.393 0 0 1-140.03.164c-15.788.013-31.576.037-47.364.064-16.202.029-32.404.045-48.606.051-9.996.004-19.992.017-29.988.042-6.857.016-13.713.02-20.57.017-3.954-.002-7.909 0-11.863.017-3.625.014-7.25.015-10.875.005-1.923-.002-3.846.01-5.77.024-11.414-.059-19.374-1.882-27.712-9.907-4.73-5.49-7.264-12.316-7.26-19.564l-.006-2.452.009-2.677-.003-2.856c-.001-3.166.004-6.332.01-9.498l-.001-6.8c0-6.16.006-12.322.013-18.482.006-6.436.006-12.871.008-19.307.002-10.804.009-21.608.018-32.412.009-11.129.016-22.257.02-33.385v-2.079l.005-10.324c.01-28.548.028-57.096.05-85.644l-2.117 1.277-2.758 1.66-2.742 1.653c-4.595 2.719-8.08 3.019-13.383 2.41-6.179-1.991-9.675-5.232-13.07-10.734-1.257-3.062-1.343-5.713-1.43-9.016l-.156-3.547c1.543-8.71 8.528-13.576 15.406-18.39l2.521-1.81c1.726-1.239 3.455-2.471 5.187-3.7 3.146-2.231 6.267-4.495 9.389-6.76 2.968-2.151 5.944-4.292 8.92-6.434 3.747-2.7 7.49-5.404 11.233-8.109l4.484-3.238c3.053-2.205 6.105-4.41 9.157-6.617a3978.26 3978.26 0 0 1 22.032-15.837c4.79-3.417 9.56-6.86 14.327-10.308a2839.39 2839.39 0 0 1 16-11.5c8.362-5.96 16.68-11.982 25-18 8.878-6.42 17.756-12.84 26.68-19.197 4.726-3.37 9.43-6.773 14.132-10.178A1605.37 1605.37 0 0 1 361.5 279c5.84-4.108 11.65-8.254 17.438-12.438l2.24-1.614c3.912-2.825 7.805-5.673 11.677-8.553l2.42-1.786c1.519-1.12 3.031-2.248 4.537-3.384 5.723-4.207 11.778-8.051 19.188-7.162Zm-9.5 50.125-2.29 1.632a3477.92 3477.92 0 0 0-18.476 13.321 1554.263 1554.263 0 0 1-17.34 12.34A1404.237 1404.237 0 0 0 356 332.5a1513.65 1513.65 0 0 1-17.5 12.5 1793.95 1793.95 0 0 0-19.972 14.279 3647.216 3647.216 0 0 1-22.196 15.91l-5.082 3.623-1.73 1.234c-3.256 2.325-6.5 4.663-9.735 7.017-8.418 6.12-16.882 12.14-25.538 17.92a148.84 148.84 0 0 0-4.326 3.033c-2.268 1.54-4.452 2.822-6.854 4.115-5.295 3.074-10.715 6.33-12.985 12.272-1.458 7.102-1.087 14.333-.898 21.541.004 2.426.002 4.851-.007 7.276-.004 5.204.04 10.404.131 15.607.13 7.521.172 15.041.192 22.564.035 12.206.141 24.411.293 36.617.147 11.85.26 23.698.328 35.549l.013 2.217.06 11.012c.166 30.406.452 60.81.806 91.214h32l.004-7.818c.016-24.28.06-48.56.128-72.84.035-12.483.06-24.966.064-37.45.003-10.879.023-21.758.065-32.638.02-5.761.033-11.522.025-17.284-.007-5.422.008-10.844.042-16.266.008-1.99.008-3.981-.001-5.972-.012-2.718.007-5.434.034-8.152l-.033-2.388c.074-3.993.509-6.485 3.024-9.666 3.526-3.363 5.895-3.65 10.576-3.66l3.1-.014h3.416l3.62-.01c3.323-.01 6.645-.014 9.967-.017 3.581-.004 7.162-.013 10.743-.022 8.65-.02 17.3-.03 25.95-.039l12.216-.015a56253.55 56253.55 0 0 1 53.785-.046c14.148-.008 28.296-.033 42.443-.066 14.521-.033 29.042-.05 43.563-.054 8.155-.002 16.31-.011 24.464-.036 6.943-.022 13.887-.03 20.83-.02 3.543.004 7.086.002 10.63-.017 3.84-.021 7.68-.01 11.52.002l3.396-.033c6.096.05 9.823.369 14.429 4.521 1.593 3.187 1.154 6.636 1.158 10.137l.015 2.579c.016 2.868.024 5.737.032 8.605l.03 6.148c.027 5.579.048 11.157.068 16.735.022 5.824.05 11.649.076 17.473.05 11.036.095 22.071.138 33.107.05 12.56.105 25.121.16 37.682.114 25.845.22 51.69.323 77.534h32c.453-31.228.81-62.454 1.021-93.684.025-3.692.051-7.385.078-11.077l.016-2.227c.086-11.88.244-23.759.428-35.638.188-12.202.298-24.402.339-36.606.027-7.523.113-15.04.276-22.562.12-5.781.131-11.559.104-17.341.006-2.362.045-4.724.122-7.084.652-12.286.652-12.286-4.305-23.059-4.718-4.19-9.942-7.284-15.484-10.256-4.238-2.394-8.077-5.305-11.97-8.216-1.484-1.079-2.97-2.156-4.457-3.23l-2.135-1.549c-8.049-5.825-16.16-11.563-24.283-17.284a1823.124 1823.124 0 0 1-20.019-14.33c-5.051-3.656-10.13-7.27-15.231-10.857a1514.815 1514.815 0 0 1-17.5-12.5c-8.615-6.24-17.298-12.382-26-18.5a10373.1 10373.1 0 0 1-8.438-5.938l-2.106-1.483a1242.52 1242.52 0 0 1-13.446-9.643c-15.522-13.877-15.522-13.877-32.51-10.748ZM287 478v36h261v-36H287Zm455 46-2.96.96c-16.96 6.277-27.85 18.823-35.595 34.743-6.413 14.629-6.51 31.69-.984 46.613 6.342 15.18 16.985 28.733 32.373 35.49 16.624 6.658 33.85 7.753 50.62.753C802.546 634.585 814.235 622.657 821 605c5.616-15.724 4.12-32.933-2.531-48.055C812.226 544.426 802.436 534.37 790 528l-2.137-1.145c-14.437-7.125-30.717-7.77-45.863-2.855Zm-454 15v37h260v-37H288Zm-1 62v67h261v-67H287Z"
     fill="#217BE1"
     id="path4"
     style="fill:#ffffff;fill-opacity:1" />
  <path
     d="M419.215 289.469c4.043 2.222 7.81 4.777 11.598 7.406l2.546 1.753c6.042 4.19 11.943 8.542 17.795 12.993 5.13 3.887 10.386 7.55 15.708 11.167 5.088 3.466 10.094 7.033 15.075 10.65a1539.182 1539.182 0 0 0 19.74 14.115L508 352a2742.355 2742.355 0 0 1 30.727 21.91c9.504 6.877 19.074 13.658 28.667 20.412 6.012 4.24 11.98 8.542 17.927 12.875l2.07 1.502 2.015 1.543c2.608 1.876 2.608 1.876 5.836 3.216 4.67 2.39 8.768 4.567 10.502 9.776 1.226 7.09.882 14.298.732 21.462-.004 2.434-.002 4.87.006 7.304.003 5.232-.034 10.463-.108 15.695-.105 7.564-.139 15.127-.155 22.692a4771.61 4771.61 0 0 1-.238 36.822 6634.1 6634.1 0 0 0-.267 35.756l-.01 2.228-.05 11.069c-.134 30.58-.367 61.159-.654 91.738h-32l-.004-7.863c-.016-24.412-.06-48.825-.128-73.237-.035-12.552-.06-25.104-.064-37.656a9336.917 9336.917 0 0 0-.065-32.815c-.02-5.793-.033-11.586-.025-17.38.007-5.45-.008-10.901-.042-16.352-.008-2.002-.008-4.005.001-6.007.012-2.731-.007-5.46-.034-8.192l.033-2.409c-.075-4.06-.49-5.864-3.087-9.058-3.476-2.73-5.058-3.156-9.393-3.162l-3.096-.012-3.426.003-3.62-.01c-3.327-.007-6.653-.01-9.98-.01-3.584-.002-7.167-.01-10.75-.016-7.842-.014-15.682-.02-23.523-.024-4.894-.003-9.788-.007-14.681-.012-13.543-.012-27.086-.022-40.629-.026h-5.262a1506385.127 1506385.127 0 0 1-7.932-.003c-14.162-.004-28.323-.021-42.484-.045-14.531-.023-29.062-.036-43.593-.037-8.162 0-16.324-.007-24.486-.025-6.95-.015-13.9-.02-20.85-.012-3.546.004-7.093.003-10.64-.011-3.843-.015-7.686-.007-11.529.004l-3.406-.025-3.12.02-2.688-.002c-3.837.575-6.483 2.429-9.285 5.04-1.8 3.466-1.634 6.858-1.61 10.674l-.02 2.571c-.02 2.849-.017 5.697-.014 8.545l-.031 6.12c-.028 5.543-.037 11.086-.043 16.629-.01 5.79-.036 11.582-.06 17.373a17500.21 17500.21 0 0 0-.095 32.904c-.027 12.486-.071 24.972-.117 37.458A57186.61 57186.61 0 0 0 263 668h-32c-.362-31.134-.648-62.268-.817-93.404-.02-3.68-.04-7.36-.062-11.04l-.013-2.22c-.07-11.845-.195-23.69-.342-35.534a3779.03 3779.03 0 0 1-.271-36.49c-.022-7.502-.091-14.999-.222-22.498-.095-5.762-.104-11.52-.083-17.282a291.476 291.476 0 0 0-.097-7.067c-.43-17.323-.43-17.323 3.483-22.583 3.742-3.68 7.936-6.377 12.542-8.855 2.461-1.343 4.703-2.938 6.968-4.586 1.428-.962 2.857-1.922 4.289-2.878 8.59-5.812 17.009-11.833 25.391-17.938 3.737-2.719 7.486-5.421 11.234-8.125 4.514-3.259 9.027-6.519 13.535-9.785a2130.963 2130.963 0 0 1 24.07-17.196c5.16-3.634 10.284-7.316 15.395-11.019 6.5-4.71 13.039-9.363 19.605-13.98 5.16-3.635 10.284-7.317 15.395-11.02 6.68-4.839 13.38-9.647 20.142-14.372 3.033-2.12 6.026-4.256 8.967-6.503l2.641-2c.717-.565 1.433-1.13 2.172-1.71C417 289 417 289 419.215 289.468Z"
     fill="#FEFEFE"
     id="path5"
     style="fill:#227ce2;fill-opacity:1" />
  <path
     d="M287 601h261v67H287v-67Z"
     fill="#FBFCFE"
     id="path6"
     style="fill:#227ce2;fill-opacity:1" />
  <path
     d="M288 539h260v37H288v-37ZM287 478h261v36H287v-36Z"
     fill="#FEFEFE"
     id="path7"
     style="fill:#227ce2;fill-opacity:1" />
  <path
     d="M797 532c3.571 2.793 6.816 5.776 10 9l1.926 1.86c11.926 12.375 15.649 29.002 15.347 45.656-.653 15.079-7.316 29.296-17.699 40.136-14.676 13.385-31.2 19.067-50.836 18.664-6.326-.301-11.908-1.88-17.738-4.316l-2.664-1.098c-17.676-8.071-27.38-22.402-34.504-39.746-4.73-14.39-2.403-31.41 3.563-45.004 8.227-16.153 20.695-27.572 37.98-33.527 18.492-5.858 38.642-2.436 54.625 8.375Zm-53 26-1.766 1.164c-5.929 4.402-9.29 10.859-11.234 17.836-1.15 11.293.433 19.961 7.625 28.813 5.473 5.79 12.636 9.672 20.637 10.39 9.889.191 17.455-2.397 24.738-9.203 7.46-8.152 9.618-15.596 9.348-26.598-.491-4.805-1.822-8.321-4.348-12.402l-1.25-2.113c-4.005-6.042-9.735-10.17-16.61-12.524-9.9-1.68-18.734-1.083-27.14 4.637Z"
     fill="#FDFDFE"
     id="path8"
     style="fill:#227ce2;fill-opacity:1" />
  <path
     d="M776.922 555.805c7.34 4.222 12.838 10.682 15.57 18.77 1.904 9.094 1.345 18.39-3.492 26.425-5.847 8.029-12.106 12.988-22 15-8.635.978-16.283-.826-23.52-5.695-6.47-5.302-9.862-11.452-12.48-19.305-.667-8.511-.554-15.642 4-23l1.25-2.113c8.865-13.373 26.495-16.795 40.672-10.082Z"
     fill="#227CE2"
     id="path9"
     style="fill:#ffffff;fill-opacity:1" />
</svg>
