<?xml version="1.0" encoding="UTF-8" standalone="no"?>
<svg
   width="1024"
   height="1024"
   version="1.1"
   id="svg9"
   sodipodi:docname="icon.svg"
   inkscape:version="1.4.2 (ebf0e940d0, 2025-05-08)"
   xmlns:inkscape="http://www.inkscape.org/namespaces/inkscape"
   xmlns:sodipodi="http://sodipodi.sourceforge.net/DTD/sodipodi-0.dtd"
   xmlns="http://www.w3.org/2000/svg"
   xmlns:svg="http://www.w3.org/2000/svg">
  <defs
     id="defs9" />
  <sodipodi:namedview
     id="namedview9"
     pagecolor="#ffffff"
     bordercolor="#000000"
     borderopacity="0.25"
     inkscape:showpageshadow="2"
     inkscape:pageopacity="0.0"
     inkscape:pagecheckerboard="0"
     inkscape:deskcolor="#d1d1d1"
     inkscape:zoom="0.859375"
     inkscape:cx="512.58182"
     inkscape:cy="512"
     inkscape:window-width="1920"
     inkscape:window-height="1124"
     inkscape:window-x="0"
     inkscape:window-y="0"
     inkscape:window-maximized="1"
     inkscape:current-layer="svg9" />
  <path
     d="m246.222 24.74 7.128-.012c5.797-.01 11.593-.01 17.39-.005 6.956.004 13.912-.003 20.868-.01 14.419-.016 28.837-.018 43.256-.015a60827.12 60827.12 0 0 0 45.508-.01c22.48-.008 44.96-.012 67.441-.008h2.564a981921.403 981921.403 0 0 1 20.609.005c26.77.005 53.539-.003 80.308-.021a109968.413 109968.413 0 0 1 102.476-.026c11.912 0 23.824-.006 35.736-.016 13.569-.012 27.137-.014 40.705-.002 6.91.006 13.82.008 20.73-.005C815.65 24.51 881.572 28.255 932 74l2.734 2.406A420.268 420.268 0 0 1 942 83l2.008 1.844c39.294 37.544 53.808 92.107 55.164 144.865.3 15.229.243 30.463.22 45.694-.007 6.206.002 12.411.01 18.617.015 13.45.014 26.902.005 40.353a37283.667 37283.667 0 0 0-.002 47.257c.01 29.819 0 59.637-.015 89.456-.015 26.415-.013 52.83.001 79.245a104838.887 104838.887 0 0 1 .01 98.844v2.373c-.004 11.756 0 23.513.008 35.27.009 13.385.006 26.772-.01 40.158-.008 6.815-.011 13.63-.001 20.445.097 72.016-5.672 140.175-58.585 194.141C929.482 952.885 916.878 962.04 903 970l-3.297 1.95C882.19 982.01 862.723 988.071 843 992l-2.284.46c-10.5 2.072-21.068 3.48-31.716 4.54l-2.24.256c-10.855 1.096-21.75.89-32.647.884l-7.023.01c-5.744.007-11.488.01-17.233.01-6.886 0-13.772.007-20.658.014-16.643.016-33.285.022-49.928.027-7.883.002-15.767.006-23.65.01a233408.602 233408.602 0 0 1-104.024.03c-27.363.003-54.726.02-82.09.042a107335.576 107335.576 0 0 1-98.857.04c-12.572.002-25.145.013-37.717.027-12.664.015-25.328.018-37.992.01-6.847-.004-13.694-.003-20.542.011-53.666.104-53.666.104-76.399-3.371l-3.087-.467c-51.584-7.97-99.303-32.523-130.725-75.033-19.99-27.823-30.298-58.498-35.438-92.188l-.495-3.197c-2.47-17.18-2.402-34.488-2.389-51.806l-.007-7.065c-.005-5.756-.006-11.512-.005-17.268.001-6.905-.003-13.81-.008-20.715-.01-14.314-.012-28.628-.013-42.942a135228.187 135228.187 0 0 0-.01-45.166c-.005-22.306-.01-44.613-.009-66.92v-23.002c.001-26.574-.006-53.149-.02-79.723a164394.842 164394.842 0 0 1-.023-99.304v-2.384c0-12.604-.006-25.208-.015-37.812-.008-12.69-.01-25.38-.003-38.07.004-6.861.004-13.723-.005-20.584C25.663 199.767 30.636 135 83.313 81.375c28.744-28.574 66.602-45.55 106.187-52.625l2.544-.458c17.99-2.98 35.981-3.586 54.178-3.553ZM109 109l-2.582 2.39C95.372 121.898 87.038 134.553 80 148l-1.836 3.508c-21.118 41.921-17.472 92.606-17.425 138.171.004 5.95-.002 11.898-.007 17.847-.01 12.89-.01 25.778-.004 38.667a51301.627 51301.627 0 0 1 .002 45.272c-.006 28.561 0 57.123.01 85.684.01 25.308.009 50.615 0 75.923a144403.05 144403.05 0 0 0-.008 94.708v2.272c.003 11.267 0 22.533-.005 33.8-.005 12.82-.004 25.641.007 38.462.005 6.53.007 13.058 0 19.587-.058 62.55 1.302 125.298 47.802 172.654 23.985 23.68 56.338 36.992 89.152 42.632l2.67.47c18.7 3.021 37.526 3.64 56.428 3.604l6.912.011c6.264.01 12.528.008 18.791.004 6.084-.002 12.167.005 18.25.012 13.96.015 27.92.017 41.88.014a57020.942 57020.942 0 0 1 44.063.01c21.769.008 43.537.012 65.306.008h2.482c4.15-.002 8.3-.002 12.451-.003h2.498l5-.002c25.916-.005 51.834.003 77.75.021a103126.837 103126.837 0 0 0 96.91.027h2.327c11.534-.002 23.067.005 34.6.015 13.136.012 26.271.014 39.407.002 6.689-.006 13.378-.008 20.068.005 62.92.105 125.955-2.735 173.417-49.182C934.936 895.568 947.054 873.985 954 852l.67-2.114c10.014-32.744 8.92-67.463 8.843-101.297-.016-6.98-.007-13.959.002-20.938.017-13.666.012-27.332-.003-40.997-.013-11.955-.018-23.91-.016-35.864v-2.415l.003-9.708a82697.7 82697.7 0 0 0-.035-90.799c-.023-26.831-.028-53.663-.018-80.495l.008-20.635v-2.567a82428.577 82428.577 0 0 0-.015-79.573c-.005-11.947-.004-23.894 0-35.84.006-13.59 0-27.18-.02-40.77-.01-6.924-.016-13.847-.008-20.77.008-6.353 0-12.706-.017-19.058-.004-2.283-.003-4.566.003-6.848C963.531 190.849 951.19 144.607 915 108c-38.364-37.916-90.239-46.174-141.996-46.134a16543.084 16543.084 0 0 0-25.947-.012c-6.139.001-12.278-.004-18.417-.008-14.1-.01-28.2-.012-42.3-.013a131137.738 131137.738 0 0 1-44.487-.01c-21.968-.005-43.936-.01-65.904-.009h-22.664c-26.177.001-52.355-.006-78.533-.02a159448.894 159448.894 0 0 0-97.796-.023h-2.347c-12.416 0-24.831-.006-37.247-.015-12.501-.008-25.002-.01-37.504-.003-6.76.004-13.52.004-20.279-.005a6970.43 6970.43 0 0 0-18.621.002c-2.227.002-4.454 0-6.68-.005C200.073 61.617 149.245 70.158 109 109Z"
     fill="#227CE2"
     id="path3" />
  <path
     d="m419 244.063 2.313.222c7.23 1.924 13.132 6.248 19.062 10.653l4.77 3.492 2.44 1.796c3.81 2.8 7.643 5.569 11.478 8.337l2.255 1.63a1705.92 1705.92 0 0 0 17.288 12.288c5.924 4.172 11.796 8.412 17.664 12.664 5.05 3.655 10.13 7.269 15.23 10.855 6.63 4.661 13.207 9.39 19.77 14.145 5.05 3.655 10.13 7.269 15.23 10.855 6.63 4.661 13.207 9.39 19.77 14.145 5.05 3.655 10.13 7.269 15.23 10.855 6.63 4.661 13.207 9.39 19.77 14.145 5.05 3.655 10.13 7.268 15.23 10.855 8.12 5.712 16.17 11.516 24.208 17.341 3.113 2.253 6.233 4.497 9.352 6.741 2.976 2.144 5.945 4.297 8.913 6.452a956.918 956.918 0 0 0 5.683 4.071l3.219 2.332 2.742 1.965c4.51 3.97 7.108 8.295 7.696 14.286-.491 5.988-2.848 10.03-6.625 14.625-5.01 4.076-9.943 5.82-16.348 5.613-5.9-1.074-10.655-4.89-15.34-8.426l.017 3.652a35456.07 35456.07 0 0 1 .313 96.519l.004 2.13c.026 11.36.074 22.72.129 34.08.056 11.666.089 23.332.102 34.998.007 6.549.026 13.097.07 19.646.04 6.17.053 12.338.044 18.507.001 2.259.013 4.518.036 6.777.22 22.69.22 22.69-6.715 31.691-6.619 6.544-14.248 9.342-23.462 9.34l-2.726-.047-2.857-.013c-2.986-.017-5.97-.054-8.955-.092-2.035-.016-4.07-.03-6.105-.042-4.966-.032-9.93-.084-14.895-.146.615 2.868 1.235 5.735 1.86 8.602l.52 2.44c4.284 19.574 15.816 36.516 32.625 47.474 22.153 13.675 51.111 15.919 76.198 10.46 20.271-5.213 38.1-16.256 48.926-34.488 8.39-14.737 11.059-28.666 10.933-45.488l-.013-3.504c-.012-2.832-.028-5.664-.049-8.496-1.027-.23-2.055-.461-3.113-.7-24.359-5.652-47.157-19.28-61.168-40.495C674.835 627.572 670.064 616.83 667 604l-.746-3.074c-4.794-23.704.604-48.923 13.496-69.239 15.541-21.914 36.772-36.934 63.125-42.625 26.696-4.272 54.065 1.303 76.2 17.137A157.564 157.564 0 0 1 827 513l2.36 2.113c16.472 15.536 28.165 39.168 28.843 61.977.353 26.116-5.6 51.431-24.142 70.787-1.35 1.379-2.705 2.751-4.061 4.123l-1.988 2.207C816.102 667.137 797.219 676.121 780 679h-4l.063 2.76c.677 33.871.677 33.871-4.063 47.24l-1.133 3.215C769.7 735.219 768.405 738.1 767 741l-1.523 3.168c-12.812 25.173-34.674 44.391-61.414 53.594-34.107 11.065-70.879 8.473-102.942-7.52-6.516-3.425-12.343-7.707-18.121-12.242l-2.328-1.805C562.145 760.951 549.56 735.698 547 712a211.672 211.672 0 0 1-.025-4.728l.011-2.432L547 703l-2.085.003a138596.393 138596.393 0 0 1-140.03.164c-15.788.013-31.576.037-47.364.064-16.202.029-32.404.045-48.606.051-9.996.004-19.992.017-29.988.042-6.857.016-13.713.02-20.57.017-3.954-.002-7.909 0-11.863.017-3.625.014-7.25.015-10.875.005-1.923-.002-3.846.01-5.77.024-11.414-.059-19.374-1.882-27.712-9.907-4.73-5.49-7.264-12.316-7.26-19.564l-.006-2.452.009-2.677-.003-2.856c-.001-3.166.004-6.332.01-9.498l-.001-6.8c0-6.16.006-12.322.013-18.482.006-6.436.006-12.871.008-19.307.002-10.804.009-21.608.018-32.412.009-11.129.016-22.257.02-33.385v-2.079l.005-10.324c.01-28.548.028-57.096.05-85.644l-2.117 1.277-2.758 1.66-2.742 1.653c-4.595 2.719-8.08 3.019-13.383 2.41-6.179-1.991-9.675-5.232-13.07-10.734-1.257-3.062-1.343-5.713-1.43-9.016l-.156-3.547c1.543-8.71 8.528-13.576 15.406-18.39l2.521-1.81c1.726-1.239 3.455-2.471 5.187-3.7 3.146-2.231 6.267-4.495 9.389-6.76 2.968-2.151 5.944-4.292 8.92-6.434 3.747-2.7 7.49-5.404 11.233-8.109l4.484-3.238c3.053-2.205 6.105-4.41 9.157-6.617a3978.26 3978.26 0 0 1 22.032-15.837c4.79-3.417 9.56-6.86 14.327-10.308a2839.39 2839.39 0 0 1 16-11.5c8.362-5.96 16.68-11.982 25-18 8.878-6.42 17.756-12.84 26.68-19.197 4.726-3.37 9.43-6.773 14.132-10.178A1605.37 1605.37 0 0 1 361.5 279c5.84-4.108 11.65-8.254 17.438-12.438l2.24-1.614c3.912-2.825 7.805-5.673 11.677-8.553l2.42-1.786c1.519-1.12 3.031-2.248 4.537-3.384 5.723-4.207 11.778-8.051 19.188-7.162Zm-9.5 50.125-2.29 1.632a3477.92 3477.92 0 0 0-18.476 13.321 1554.263 1554.263 0 0 1-17.34 12.34A1404.237 1404.237 0 0 0 356 332.5a1513.65 1513.65 0 0 1-17.5 12.5 1793.95 1793.95 0 0 0-19.972 14.279 3647.216 3647.216 0 0 1-22.196 15.91l-5.082 3.623-1.73 1.234c-3.256 2.325-6.5 4.663-9.735 7.017-8.418 6.12-16.882 12.14-25.538 17.92a148.84 148.84 0 0 0-4.326 3.033c-2.268 1.54-4.452 2.822-6.854 4.115-5.295 3.074-10.715 6.33-12.985 12.272-1.458 7.102-1.087 14.333-.898 21.541.004 2.426.002 4.851-.007 7.276-.004 5.204.04 10.404.131 15.607.13 7.521.172 15.041.192 22.564.035 12.206.141 24.411.293 36.617.147 11.85.26 23.698.328 35.549l.013 2.217.06 11.012c.166 30.406.452 60.81.806 91.214h32l.004-7.818c.016-24.28.06-48.56.128-72.84.035-12.483.06-24.966.064-37.45.003-10.879.023-21.758.065-32.638.02-5.761.033-11.522.025-17.284-.007-5.422.008-10.844.042-16.266.008-1.99.008-3.981-.001-5.972-.012-2.718.007-5.434.034-8.152l-.033-2.388c.074-3.993.509-6.485 3.024-9.666 3.526-3.363 5.895-3.65 10.576-3.66l3.1-.014h3.416l3.62-.01c3.323-.01 6.645-.014 9.967-.017 3.581-.004 7.162-.013 10.743-.022 8.65-.02 17.3-.03 25.95-.039l12.216-.015a56253.55 56253.55 0 0 1 53.785-.046c14.148-.008 28.296-.033 42.443-.066 14.521-.033 29.042-.05 43.563-.054 8.155-.002 16.31-.011 24.464-.036 6.943-.022 13.887-.03 20.83-.02 3.543.004 7.086.002 10.63-.017 3.84-.021 7.68-.01 11.52.002l3.396-.033c6.096.05 9.823.369 14.429 4.521 1.593 3.187 1.154 6.636 1.158 10.137l.015 2.579c.016 2.868.024 5.737.032 8.605l.03 6.148c.027 5.579.048 11.157.068 16.735.022 5.824.05 11.649.076 17.473.05 11.036.095 22.071.138 33.107.05 12.56.105 25.121.16 37.682.114 25.845.22 51.69.323 77.534h32c.453-31.228.81-62.454 1.021-93.684.025-3.692.051-7.385.078-11.077l.016-2.227c.086-11.88.244-23.759.428-35.638.188-12.202.298-24.402.339-36.606.027-7.523.113-15.04.276-22.562.12-5.781.131-11.559.104-17.341.006-2.362.045-4.724.122-7.084.652-12.286.652-12.286-4.305-23.059-4.718-4.19-9.942-7.284-15.484-10.256-4.238-2.394-8.077-5.305-11.97-8.216-1.484-1.079-2.97-2.156-4.457-3.23l-2.135-1.549c-8.049-5.825-16.16-11.563-24.283-17.284a1823.124 1823.124 0 0 1-20.019-14.33c-5.051-3.656-10.13-7.27-15.231-10.857a1514.815 1514.815 0 0 1-17.5-12.5c-8.615-6.24-17.298-12.382-26-18.5a10373.1 10373.1 0 0 1-8.438-5.938l-2.106-1.483a1242.52 1242.52 0 0 1-13.446-9.643c-15.522-13.877-15.522-13.877-32.51-10.748ZM287 478v36h261v-36H287Zm455 46-2.96.96c-16.96 6.277-27.85 18.823-35.595 34.743-6.413 14.629-6.51 31.69-.984 46.613 6.342 15.18 16.985 28.733 32.373 35.49 16.624 6.658 33.85 7.753 50.62.753C802.546 634.585 814.235 622.657 821 605c5.616-15.724 4.12-32.933-2.531-48.055C812.226 544.426 802.436 534.37 790 528l-2.137-1.145c-14.437-7.125-30.717-7.77-45.863-2.855Zm-454 15v37h260v-37H288Zm-1 62v67h261v-67H287Z"
     fill="#217BE1"
     id="path4"
     style="fill:#227ce2;fill-opacity:1" />
  <path
     d="M776.922 555.805c7.34 4.222 12.838 10.682 15.57 18.77 1.904 9.094 1.345 18.39-3.492 26.425-5.847 8.029-12.106 12.988-22 15-8.635.978-16.283-.826-23.52-5.695-6.47-5.302-9.862-11.452-12.48-19.305-.667-8.511-.554-15.642 4-23l1.25-2.113c8.865-13.373 26.495-16.795 40.672-10.082Z"
     fill="#227CE2"
     id="path9"
     style="fill:#227ce2;fill-opacity:1" />
</svg>
