<svg xmlns="http://www.w3.org/2000/svg" width="1024" height="1024">
    <path d="m256.256 61.866 6.96-.007c6.334-.006 12.669-.006 19.003-.004 6.143 0 12.286-.005 18.429-.009 14.105-.01 28.21-.012 42.315-.013a131218.975 131218.975 0 0 0 42.126-.008l2.369-.001a219643.847 219643.847 0 0 1 88.572-.01c26.185.001 52.37-.006 78.554-.02a159603.24 159603.24 0 0 1 97.822-.023h2.348c12.421 0 24.843-.006 37.264-.015 12.501-.008 25.002-.01 37.503-.003 6.762.004 13.523.004 20.285-.005 6.205-.008 12.41-.006 18.615.002 2.229.002 4.458 0 6.688-.005 20.39-.048 40.963.576 60.891 5.255l2.26.527c40.69 9.695 76.057 31.935 99.078 67.542 20.511 33.352 25.987 70.317 25.93 108.855.003 2.38.008 4.76.013 7.14.011 5.82.013 11.638.01 17.457a12384 12384 0 0 0 .017 20.94c.02 14.473.025 28.944.026 43.416a69158.462 69158.462 0 0 0 .017 43.245l.001 2.432c.012 22.564.02 45.128.02 67.691v2.575l-.001 12.917v7.778c-.002 26.87.013 53.74.04 80.609a84022.717 84022.717 0 0 1 .046 100.433v2.412c0 12.74.013 25.48.03 38.221.017 12.836.02 25.672.006 38.508-.007 6.937-.007 13.873.01 20.81C963.71 837.86 963.71 837.86 944 876l-.972 1.887C929.613 903.449 910.187 923.865 885 938l-1.786 1.003C858.914 952.432 832.318 957.285 805 960l-2.646.274c-10.965.993-21.93.871-32.93.866l-6.885.01c-6.284.007-12.569.01-18.853.01-6.09.002-12.178.008-18.268.014-16.304.016-32.608.022-48.913.027-7.725.002-15.45.006-23.174.01a224227.204 224227.204 0 0 1-99.44.03h-2.508c-26.81.003-53.618.02-80.427.042a103042.964 103042.964 0 0 1-94.551.04h-2.331c-12.316.002-24.633.013-36.949.027-12.41.015-24.82.018-37.229.01-6.708-.004-13.415-.003-20.123.011-96.075.19-96.075.19-138.773-23.371l-3.23-1.746c-35.24-19.74-57.647-52.35-69.015-90.524C64.904 831.8 63.119 817.38 62 803l-.253-3.196c-.836-11.763-.89-23.484-.88-35.272l-.008-6.74c-.006-6.137-.006-12.274-.004-18.41 0-5.951-.005-11.903-.009-17.854-.01-13.668-.012-27.336-.013-41.005a123395.154 123395.154 0 0 0-.008-40.847l-.001-2.298a206670.712 206670.712 0 0 1-.01-78.578V551.452c.001-25.38-.006-50.759-.02-76.138a149882.305 149882.305 0 0 1-.023-97.141c0-12.032-.006-24.065-.015-36.097-.008-12.126-.009-24.252-.003-36.378.004-6.551.004-13.103-.005-19.655-.16-127.53-.16-127.53 46.252-175.043l2.383-2.57c38.157-40.172 94.522-46.604 146.873-46.564Zm140.806 191.572-2.195 1.58c-1.526 1.1-3.05 2.203-4.57 3.31-2.25 1.638-4.507 3.266-6.766 4.89A5206.291 5206.291 0 0 0 370 273c-9.498 6.883-19.014 13.734-28.608 20.483-7.421 5.228-14.775 10.55-22.126 15.876-3.752 2.717-7.51 5.429-11.266 8.141l-4.5 3.25-9 6.5a429664265.04 429664265.04 0 0 1-6.741 4.868c-3.8 2.745-7.6 5.49-11.4 8.237a4056.892 4056.892 0 0 1-22.04 15.844c-7.8 5.564-15.556 11.187-23.319 16.801-17.237 12.466-17.237 12.466-25 18a2996.153 2996.153 0 0 0-22.723 16.348c-1.516 1.1-3.036 2.196-4.558 3.289-2.185 1.569-4.359 3.152-6.532 4.738l-1.974 1.404c-5.36 3.951-9.59 7.966-10.877 14.686.082 7.287.266 13.204 5.664 18.535 2.287 1.673 4.411 2.779 7 4l2 1c8.658 1.281 14.043-2.362 21-7l-.011 3.561a50573.99 50573.99 0 0 0-.209 94.101l-.003 2.076c-.017 11.076-.049 22.152-.086 33.229-.037 11.373-.059 22.747-.067 34.12-.006 6.385-.018 12.77-.047 19.155-.027 6.014-.035 12.027-.03 18.041 0 2.203-.008 4.406-.024 6.61-.27 19.823-.27 19.823 9.622 36.455 8.657 7.71 18.076 7.944 29.111 7.893a2850.879 2850.879 0 0 0 15.202-.008c4.007-.01 8.015-.007 12.022-.005 6.94.001 13.88-.005 20.82-.017 10.033-.016 20.066-.021 30.1-.024 16.279-.004 32.558-.017 48.838-.036 15.812-.018 31.625-.033 47.437-.041l2.954-.002 14.673-.007c40.566-.021 81.132-.056 121.698-.101l-.016 1.842-.012 2.433-.015 2.405c.4 21.36 12.163 44.586 27.043 59.32l2.5 2.625L579 774l1.844 1.793c23.45 21.963 55.402 29.114 86.55 28.488 31.302-1.076 60.097-13.141 81.692-35.965 15.51-17.175 27.187-40.69 27.012-64.12l-.005-2.195c-.005-2.292-.018-4.584-.03-6.876-.006-1.562-.01-3.125-.014-4.687-.011-3.813-.028-7.626-.049-11.438l1.718-.146C795.185 677.173 812.11 668.774 825 657l1.539-1.394c17.63-16.166 30.383-38.746 31.583-63.082.349-11.823.42-23.146-3.122-34.524l-.586-1.89C849.088 539.408 840.421 526.266 828 514l-2.086-2.082c-19.72-18.43-46.172-24.833-72.401-24.045C729.014 489.115 708 501.025 691 518l-2.207 2.172c-16.329 17.134-24.37 41.264-24.145 64.633.817 28.157 12.74 52.297 32.782 71.879 3.93 3.541 8.118 6.472 12.57 9.316.755.512 1.51 1.024 2.29 1.55 5.002 3.238 10.162 5.584 15.71 7.7l1.94.746c5.248 1.917 10.567 3.022 16.06 4.004.059 3.937.094 7.875.125 11.813l.05 3.333c.129 21.687-7.528 41.707-22.65 57.388-18.373 17.661-43.133 21.958-67.552 21.677-19.113-.494-36.684-5.476-51.973-17.211-.8-.605-1.598-1.21-2.422-1.832-14.337-11.741-22.12-29.586-25.634-47.385l-.538-2.717L575 703l3.789.063c4.677.073 9.355.119 14.033.157 2.018.02 4.035.047 6.052.082 2.915.049 5.828.071 8.743.089l2.694.062c7.897.003 16.446-2.136 22.322-7.781 9.122-11.153 8.188-23.011 8.048-36.698-.002-2.327 0-4.654.003-6.981.002-6.289-.034-12.577-.076-18.865-.037-6.582-.04-13.165-.048-19.747a9586.662 9586.662 0 0 0-.107-33.116 13042.161 13042.161 0 0 1-.128-36.22l-.023-10.564c-.062-29.16-.168-58.32-.302-87.481l1.828 1.242 2.422 1.633 2.39 1.617c5.316 3.397 9.086 4.187 15.36 3.508 6.812-2.157 10.882-5.674 14.312-11.875 2.07-4.51 2.5-8.158 1.168-13.023-4.303-10.728-17.276-17.112-26.435-23.304a345.622 345.622 0 0 1-15.912-11.435c-10.405-7.849-21.077-15.346-31.737-22.843-5.925-4.172-11.798-8.413-17.666-12.665A1376.027 1376.027 0 0 0 570.5 348c-6.63-4.661-13.207-9.39-19.77-14.145A1376.027 1376.027 0 0 0 535.5 323a1514.815 1514.815 0 0 1-17.5-12.5c-8.615-6.24-17.298-12.382-26-18.5a3010.729 3010.729 0 0 1-39.715-28.43A1832.231 1832.231 0 0 0 439 254l-1.838-1.312c-15.272-10.808-25.138-10.23-40.1.75Z" fill="#FEFEFE"/>
    <path d="M0 0h1024v1024H0V0Zm187.813 29.125-3.397.642C153.323 35.946 123.772 47.988 99 68l-1.56 1.252c-40.169 32.435-63.78 77.431-69.69 128.623-1.607 16.633-1.895 33.183-1.877 49.884l-.005 7.086c-.003 5.773-.003 11.547 0 17.32.004 6.925 0 13.85-.002 20.776-.005 13.565-.005 27.131-.002 40.697.003 11.873.003 23.745.002 35.617v2.391l-.001 9.612c-.003 30.021 0 60.043.005 90.064.005 26.642.004 53.283 0 79.924a318947.147 318947.147 0 0 0-.004 101.885c.002 11.861 0 23.723-.002 35.584-.003 13.494-.002 26.988.003 40.482.003 6.88.004 13.76 0 20.64-.003 6.307-.001 12.614.004 18.92.001 2.273 0 4.546-.002 6.82-.018 18.322.45 36.347 3.256 54.486l.325 2.128C32.624 852.687 38.07 872.239 47 891l.94 1.988C55.31 908.298 65.332 921.718 77 934a531.526 531.526 0 0 1 3.438 4.063C114.255 976.668 166.724 992.2 216 997l2.358.244c6.298.622 12.507.9 18.833.885l2.934.005c3.228.005 6.455.002 9.682 0l7.033.007c5.757.005 11.513.006 17.27.005 6.9-.001 13.799.003 20.698.008 14.307.01 28.614.012 42.92.013a134808.733 134808.733 0 0 1 45.12.01c22.274.005 44.547.01 66.82.009h22.992c26.56-.001 53.12.006 79.679.02a164031.148 164031.148 0 0 0 99.163.023h2.38c12.599 0 25.197.006 37.796.015 12.681.008 25.362.01 38.043.003 6.86-.004 13.72-.004 20.581.005 6.295.008 12.59.006 18.884-.002 2.264-.002 4.527 0 6.79.005 20.868.049 41.528-1.163 62.024-5.255l2.572-.511C878.096 984.863 911.128 969.52 939 943l1.63-1.547c41.767-39.914 57.115-95.693 58.538-152.203.3-15.259.247-30.523.224-45.784-.007-6.206.002-12.413.01-18.62.015-13.451.014-26.903.005-40.355-.007-11.772-.01-23.544-.006-35.316l.001-2.378.003-9.562c.01-29.817 0-59.634-.015-89.45-.015-26.416-.013-52.831.001-79.247a104852.084 104852.084 0 0 0 .01-98.847v-2.373c-.004-11.757 0-23.514.008-35.272.009-13.385.006-26.77-.01-40.155-.008-6.815-.011-13.63-.001-20.445C999.494 200.24 993.143 136.557 942 83l-1.824-1.984c-5.248-5.553-11.413-10.095-17.473-14.714a444.557 444.557 0 0 1-4.422-3.435C869.503 25.681 807.458 24.514 748.944 24.62c-6.964.012-13.927.006-20.89 0-13.636-.012-27.27-.007-40.906.005-11.927.01-23.854.015-35.78.013H639.278c-30.188-.005-60.376.008-90.564.029a90219.012 90219.012 0 0 1-85.475.017h-2.578l-12.849-.003h-2.561a120892.3 120892.3 0 0 0-79.358.014c-11.133.005-22.267.005-33.4.003-14.345-.002-28.69.002-43.035.017-6.91.008-13.818.012-20.727.007a7270.56 7270.56 0 0 0-19.007.014c-2.28.003-4.56.002-6.84-.002-18.527-.03-36.833.943-55.072 4.392Z" fill="#FDFEFE"/>
    <path d="m246.222 24.74 7.128-.012c5.797-.01 11.593-.01 17.39-.005 6.956.004 13.912-.003 20.868-.01 14.419-.016 28.837-.018 43.256-.015a60827.12 60827.12 0 0 0 45.508-.01c22.48-.008 44.96-.012 67.441-.008h2.564a981921.403 981921.403 0 0 1 20.609.005c26.77.005 53.539-.003 80.308-.021a109968.413 109968.413 0 0 1 102.476-.026c11.912 0 23.824-.006 35.736-.016 13.569-.012 27.137-.014 40.705-.002 6.91.006 13.82.008 20.73-.005C815.65 24.51 881.572 28.255 932 74l2.734 2.406A420.268 420.268 0 0 1 942 83l2.008 1.844c39.294 37.544 53.808 92.107 55.164 144.865.3 15.229.243 30.463.22 45.694-.007 6.206.002 12.411.01 18.617.015 13.45.014 26.902.005 40.353a37283.667 37283.667 0 0 0-.002 47.257c.01 29.819 0 59.637-.015 89.456-.015 26.415-.013 52.83.001 79.245a104838.887 104838.887 0 0 1 .01 98.844v2.373c-.004 11.756 0 23.513.008 35.27.009 13.385.006 26.772-.01 40.158-.008 6.815-.011 13.63-.001 20.445.097 72.016-5.672 140.175-58.585 194.141C929.482 952.885 916.878 962.04 903 970l-3.297 1.95C882.19 982.01 862.723 988.071 843 992l-2.284.46c-10.5 2.072-21.068 3.48-31.716 4.54l-2.24.256c-10.855 1.096-21.75.89-32.647.884l-7.023.01c-5.744.007-11.488.01-17.233.01-6.886 0-13.772.007-20.658.014-16.643.016-33.285.022-49.928.027-7.883.002-15.767.006-23.65.01a233408.602 233408.602 0 0 1-104.024.03c-27.363.003-54.726.02-82.09.042a107335.576 107335.576 0 0 1-98.857.04c-12.572.002-25.145.013-37.717.027-12.664.015-25.328.018-37.992.01-6.847-.004-13.694-.003-20.542.011-53.666.104-53.666.104-76.399-3.371l-3.087-.467c-51.584-7.97-99.303-32.523-130.725-75.033-19.99-27.823-30.298-58.498-35.438-92.188l-.495-3.197c-2.47-17.18-2.402-34.488-2.389-51.806l-.007-7.065c-.005-5.756-.006-11.512-.005-17.268.001-6.905-.003-13.81-.008-20.715-.01-14.314-.012-28.628-.013-42.942a135228.187 135228.187 0 0 0-.01-45.166c-.005-22.306-.01-44.613-.009-66.92v-23.002c.001-26.574-.006-53.149-.02-79.723a164394.842 164394.842 0 0 1-.023-99.304v-2.384c0-12.604-.006-25.208-.015-37.812-.008-12.69-.01-25.38-.003-38.07.004-6.861.004-13.723-.005-20.584C25.663 199.767 30.636 135 83.313 81.375c28.744-28.574 66.602-45.55 106.187-52.625l2.544-.458c17.99-2.98 35.981-3.586 54.178-3.553ZM109 109l-2.582 2.39C95.372 121.898 87.038 134.553 80 148l-1.836 3.508c-21.118 41.921-17.472 92.606-17.425 138.171.004 5.95-.002 11.898-.007 17.847-.01 12.89-.01 25.778-.004 38.667a51301.627 51301.627 0 0 1 .002 45.272c-.006 28.561 0 57.123.01 85.684.01 25.308.009 50.615 0 75.923a144403.05 144403.05 0 0 0-.008 94.708v2.272c.003 11.267 0 22.533-.005 33.8-.005 12.82-.004 25.641.007 38.462.005 6.53.007 13.058 0 19.587-.058 62.55 1.302 125.298 47.802 172.654 23.985 23.68 56.338 36.992 89.152 42.632l2.67.47c18.7 3.021 37.526 3.64 56.428 3.604l6.912.011c6.264.01 12.528.008 18.791.004 6.084-.002 12.167.005 18.25.012 13.96.015 27.92.017 41.88.014a57020.942 57020.942 0 0 1 44.063.01c21.769.008 43.537.012 65.306.008h2.482c4.15-.002 8.3-.002 12.451-.003h2.498l5-.002c25.916-.005 51.834.003 77.75.021a103126.837 103126.837 0 0 0 96.91.027h2.327c11.534-.002 23.067.005 34.6.015 13.136.012 26.271.014 39.407.002 6.689-.006 13.378-.008 20.068.005 62.92.105 125.955-2.735 173.417-49.182C934.936 895.568 947.054 873.985 954 852l.67-2.114c10.014-32.744 8.92-67.463 8.843-101.297-.016-6.98-.007-13.959.002-20.938.017-13.666.012-27.332-.003-40.997-.013-11.955-.018-23.91-.016-35.864v-2.415l.003-9.708a82697.7 82697.7 0 0 0-.035-90.799c-.023-26.831-.028-53.663-.018-80.495l.008-20.635v-2.567a82428.577 82428.577 0 0 0-.015-79.573c-.005-11.947-.004-23.894 0-35.84.006-13.59 0-27.18-.02-40.77-.01-6.924-.016-13.847-.008-20.77.008-6.353 0-12.706-.017-19.058-.004-2.283-.003-4.566.003-6.848C963.531 190.849 951.19 144.607 915 108c-38.364-37.916-90.239-46.174-141.996-46.134a16543.084 16543.084 0 0 0-25.947-.012c-6.139.001-12.278-.004-18.417-.008-14.1-.01-28.2-.012-42.3-.013a131137.738 131137.738 0 0 1-44.487-.01c-21.968-.005-43.936-.01-65.904-.009h-22.664c-26.177.001-52.355-.006-78.533-.02a159448.894 159448.894 0 0 0-97.796-.023h-2.347c-12.416 0-24.831-.006-37.247-.015-12.501-.008-25.002-.01-37.504-.003-6.76.004-13.52.004-20.279-.005a6970.43 6970.43 0 0 0-18.621.002c-2.227.002-4.454 0-6.68-.005C200.073 61.617 149.245 70.158 109 109Z" fill="#227CE2"/>
    <path d="m419 244.063 2.313.222c7.23 1.924 13.132 6.248 19.062 10.653l4.77 3.492 2.44 1.796c3.81 2.8 7.643 5.569 11.478 8.337l2.255 1.63a1705.92 1705.92 0 0 0 17.288 12.288c5.924 4.172 11.796 8.412 17.664 12.664 5.05 3.655 10.13 7.269 15.23 10.855 6.63 4.661 13.207 9.39 19.77 14.145 5.05 3.655 10.13 7.269 15.23 10.855 6.63 4.661 13.207 9.39 19.77 14.145 5.05 3.655 10.13 7.269 15.23 10.855 6.63 4.661 13.207 9.39 19.77 14.145 5.05 3.655 10.13 7.268 15.23 10.855 8.12 5.712 16.17 11.516 24.208 17.341 3.113 2.253 6.233 4.497 9.352 6.741 2.976 2.144 5.945 4.297 8.913 6.452a956.918 956.918 0 0 0 5.683 4.071l3.219 2.332 2.742 1.965c4.51 3.97 7.108 8.295 7.696 14.286-.491 5.988-2.848 10.03-6.625 14.625-5.01 4.076-9.943 5.82-16.348 5.613-5.9-1.074-10.655-4.89-15.34-8.426l.017 3.652a35456.07 35456.07 0 0 1 .313 96.519l.004 2.13c.026 11.36.074 22.72.129 34.08.056 11.666.089 23.332.102 34.998.007 6.549.026 13.097.07 19.646.04 6.17.053 12.338.044 18.507.001 2.259.013 4.518.036 6.777.22 22.69.22 22.69-6.715 31.691-6.619 6.544-14.248 9.342-23.462 9.34l-2.726-.047-2.857-.013c-2.986-.017-5.97-.054-8.955-.092-2.035-.016-4.07-.03-6.105-.042-4.966-.032-9.93-.084-14.895-.146.615 2.868 1.235 5.735 1.86 8.602l.52 2.44c4.284 19.574 15.816 36.516 32.625 47.474 22.153 13.675 51.111 15.919 76.198 10.46 20.271-5.213 38.1-16.256 48.926-34.488 8.39-14.737 11.059-28.666 10.933-45.488l-.013-3.504c-.012-2.832-.028-5.664-.049-8.496-1.027-.23-2.055-.461-3.113-.7-24.359-5.652-47.157-19.28-61.168-40.495C674.835 627.572 670.064 616.83 667 604l-.746-3.074c-4.794-23.704.604-48.923 13.496-69.239 15.541-21.914 36.772-36.934 63.125-42.625 26.696-4.272 54.065 1.303 76.2 17.137A157.564 157.564 0 0 1 827 513l2.36 2.113c16.472 15.536 28.165 39.168 28.843 61.977.353 26.116-5.6 51.431-24.142 70.787-1.35 1.379-2.705 2.751-4.061 4.123l-1.988 2.207C816.102 667.137 797.219 676.121 780 679h-4l.063 2.76c.677 33.871.677 33.871-4.063 47.24l-1.133 3.215C769.7 735.219 768.405 738.1 767 741l-1.523 3.168c-12.812 25.173-34.674 44.391-61.414 53.594-34.107 11.065-70.879 8.473-102.942-7.52-6.516-3.425-12.343-7.707-18.121-12.242l-2.328-1.805C562.145 760.951 549.56 735.698 547 712a211.672 211.672 0 0 1-.025-4.728l.011-2.432L547 703l-2.085.003a138596.393 138596.393 0 0 1-140.03.164c-15.788.013-31.576.037-47.364.064-16.202.029-32.404.045-48.606.051-9.996.004-19.992.017-29.988.042-6.857.016-13.713.02-20.57.017-3.954-.002-7.909 0-11.863.017-3.625.014-7.25.015-10.875.005-1.923-.002-3.846.01-5.77.024-11.414-.059-19.374-1.882-27.712-9.907-4.73-5.49-7.264-12.316-7.26-19.564l-.006-2.452.009-2.677-.003-2.856c-.001-3.166.004-6.332.01-9.498l-.001-6.8c0-6.16.006-12.322.013-18.482.006-6.436.006-12.871.008-19.307.002-10.804.009-21.608.018-32.412.009-11.129.016-22.257.02-33.385v-2.079l.005-10.324c.01-28.548.028-57.096.05-85.644l-2.117 1.277-2.758 1.66-2.742 1.653c-4.595 2.719-8.08 3.019-13.383 2.41-6.179-1.991-9.675-5.232-13.07-10.734-1.257-3.062-1.343-5.713-1.43-9.016l-.156-3.547c1.543-8.71 8.528-13.576 15.406-18.39l2.521-1.81c1.726-1.239 3.455-2.471 5.187-3.7 3.146-2.231 6.267-4.495 9.389-6.76 2.968-2.151 5.944-4.292 8.92-6.434 3.747-2.7 7.49-5.404 11.233-8.109l4.484-3.238c3.053-2.205 6.105-4.41 9.157-6.617a3978.26 3978.26 0 0 1 22.032-15.837c4.79-3.417 9.56-6.86 14.327-10.308a2839.39 2839.39 0 0 1 16-11.5c8.362-5.96 16.68-11.982 25-18 8.878-6.42 17.756-12.84 26.68-19.197 4.726-3.37 9.43-6.773 14.132-10.178A1605.37 1605.37 0 0 1 361.5 279c5.84-4.108 11.65-8.254 17.438-12.438l2.24-1.614c3.912-2.825 7.805-5.673 11.677-8.553l2.42-1.786c1.519-1.12 3.031-2.248 4.537-3.384 5.723-4.207 11.778-8.051 19.188-7.162Zm-9.5 50.125-2.29 1.632a3477.92 3477.92 0 0 0-18.476 13.321 1554.263 1554.263 0 0 1-17.34 12.34A1404.237 1404.237 0 0 0 356 332.5a1513.65 1513.65 0 0 1-17.5 12.5 1793.95 1793.95 0 0 0-19.972 14.279 3647.216 3647.216 0 0 1-22.196 15.91l-5.082 3.623-1.73 1.234c-3.256 2.325-6.5 4.663-9.735 7.017-8.418 6.12-16.882 12.14-25.538 17.92a148.84 148.84 0 0 0-4.326 3.033c-2.268 1.54-4.452 2.822-6.854 4.115-5.295 3.074-10.715 6.33-12.985 12.272-1.458 7.102-1.087 14.333-.898 21.541.004 2.426.002 4.851-.007 7.276-.004 5.204.04 10.404.131 15.607.13 7.521.172 15.041.192 22.564.035 12.206.141 24.411.293 36.617.147 11.85.26 23.698.328 35.549l.013 2.217.06 11.012c.166 30.406.452 60.81.806 91.214h32l.004-7.818c.016-24.28.06-48.56.128-72.84.035-12.483.06-24.966.064-37.45.003-10.879.023-21.758.065-32.638.02-5.761.033-11.522.025-17.284-.007-5.422.008-10.844.042-16.266.008-1.99.008-3.981-.001-5.972-.012-2.718.007-5.434.034-8.152l-.033-2.388c.074-3.993.509-6.485 3.024-9.666 3.526-3.363 5.895-3.65 10.576-3.66l3.1-.014h3.416l3.62-.01c3.323-.01 6.645-.014 9.967-.017 3.581-.004 7.162-.013 10.743-.022 8.65-.02 17.3-.03 25.95-.039l12.216-.015a56253.55 56253.55 0 0 1 53.785-.046c14.148-.008 28.296-.033 42.443-.066 14.521-.033 29.042-.05 43.563-.054 8.155-.002 16.31-.011 24.464-.036 6.943-.022 13.887-.03 20.83-.02 3.543.004 7.086.002 10.63-.017 3.84-.021 7.68-.01 11.52.002l3.396-.033c6.096.05 9.823.369 14.429 4.521 1.593 3.187 1.154 6.636 1.158 10.137l.015 2.579c.016 2.868.024 5.737.032 8.605l.03 6.148c.027 5.579.048 11.157.068 16.735.022 5.824.05 11.649.076 17.473.05 11.036.095 22.071.138 33.107.05 12.56.105 25.121.16 37.682.114 25.845.22 51.69.323 77.534h32c.453-31.228.81-62.454 1.021-93.684.025-3.692.051-7.385.078-11.077l.016-2.227c.086-11.88.244-23.759.428-35.638.188-12.202.298-24.402.339-36.606.027-7.523.113-15.04.276-22.562.12-5.781.131-11.559.104-17.341.006-2.362.045-4.724.122-7.084.652-12.286.652-12.286-4.305-23.059-4.718-4.19-9.942-7.284-15.484-10.256-4.238-2.394-8.077-5.305-11.97-8.216-1.484-1.079-2.97-2.156-4.457-3.23l-2.135-1.549c-8.049-5.825-16.16-11.563-24.283-17.284a1823.124 1823.124 0 0 1-20.019-14.33c-5.051-3.656-10.13-7.27-15.231-10.857a1514.815 1514.815 0 0 1-17.5-12.5c-8.615-6.24-17.298-12.382-26-18.5a10373.1 10373.1 0 0 1-8.438-5.938l-2.106-1.483a1242.52 1242.52 0 0 1-13.446-9.643c-15.522-13.877-15.522-13.877-32.51-10.748ZM287 478v36h261v-36H287Zm455 46-2.96.96c-16.96 6.277-27.85 18.823-35.595 34.743-6.413 14.629-6.51 31.69-.984 46.613 6.342 15.18 16.985 28.733 32.373 35.49 16.624 6.658 33.85 7.753 50.62.753C802.546 634.585 814.235 622.657 821 605c5.616-15.724 4.12-32.933-2.531-48.055C812.226 544.426 802.436 534.37 790 528l-2.137-1.145c-14.437-7.125-30.717-7.77-45.863-2.855Zm-454 15v37h260v-37H288Zm-1 62v67h261v-67H287Z" fill="#217BE1"/>
    <path d="M419.215 289.469c4.043 2.222 7.81 4.777 11.598 7.406l2.546 1.753c6.042 4.19 11.943 8.542 17.795 12.993 5.13 3.887 10.386 7.55 15.708 11.167 5.088 3.466 10.094 7.033 15.075 10.65a1539.182 1539.182 0 0 0 19.74 14.115L508 352a2742.355 2742.355 0 0 1 30.727 21.91c9.504 6.877 19.074 13.658 28.667 20.412 6.012 4.24 11.98 8.542 17.927 12.875l2.07 1.502 2.015 1.543c2.608 1.876 2.608 1.876 5.836 3.216 4.67 2.39 8.768 4.567 10.502 9.776 1.226 7.09.882 14.298.732 21.462-.004 2.434-.002 4.87.006 7.304.003 5.232-.034 10.463-.108 15.695-.105 7.564-.139 15.127-.155 22.692a4771.61 4771.61 0 0 1-.238 36.822 6634.1 6634.1 0 0 0-.267 35.756l-.01 2.228-.05 11.069c-.134 30.58-.367 61.159-.654 91.738h-32l-.004-7.863c-.016-24.412-.06-48.825-.128-73.237-.035-12.552-.06-25.104-.064-37.656a9336.917 9336.917 0 0 0-.065-32.815c-.02-5.793-.033-11.586-.025-17.38.007-5.45-.008-10.901-.042-16.352-.008-2.002-.008-4.005.001-6.007.012-2.731-.007-5.46-.034-8.192l.033-2.409c-.075-4.06-.49-5.864-3.087-9.058-3.476-2.73-5.058-3.156-9.393-3.162l-3.096-.012-3.426.003-3.62-.01c-3.327-.007-6.653-.01-9.98-.01-3.584-.002-7.167-.01-10.75-.016-7.842-.014-15.682-.02-23.523-.024-4.894-.003-9.788-.007-14.681-.012-13.543-.012-27.086-.022-40.629-.026h-5.262a1506385.127 1506385.127 0 0 1-7.932-.003c-14.162-.004-28.323-.021-42.484-.045-14.531-.023-29.062-.036-43.593-.037-8.162 0-16.324-.007-24.486-.025-6.95-.015-13.9-.02-20.85-.012-3.546.004-7.093.003-10.64-.011-3.843-.015-7.686-.007-11.529.004l-3.406-.025-3.12.02-2.688-.002c-3.837.575-6.483 2.429-9.285 5.04-1.8 3.466-1.634 6.858-1.61 10.674l-.02 2.571c-.02 2.849-.017 5.697-.014 8.545l-.031 6.12c-.028 5.543-.037 11.086-.043 16.629-.01 5.79-.036 11.582-.06 17.373a17500.21 17500.21 0 0 0-.095 32.904c-.027 12.486-.071 24.972-.117 37.458A57186.61 57186.61 0 0 0 263 668h-32c-.362-31.134-.648-62.268-.817-93.404-.02-3.68-.04-7.36-.062-11.04l-.013-2.22c-.07-11.845-.195-23.69-.342-35.534a3779.03 3779.03 0 0 1-.271-36.49c-.022-7.502-.091-14.999-.222-22.498-.095-5.762-.104-11.52-.083-17.282a291.476 291.476 0 0 0-.097-7.067c-.43-17.323-.43-17.323 3.483-22.583 3.742-3.68 7.936-6.377 12.542-8.855 2.461-1.343 4.703-2.938 6.968-4.586 1.428-.962 2.857-1.922 4.289-2.878 8.59-5.812 17.009-11.833 25.391-17.938 3.737-2.719 7.486-5.421 11.234-8.125 4.514-3.259 9.027-6.519 13.535-9.785a2130.963 2130.963 0 0 1 24.07-17.196c5.16-3.634 10.284-7.316 15.395-11.019 6.5-4.71 13.039-9.363 19.605-13.98 5.16-3.635 10.284-7.317 15.395-11.02 6.68-4.839 13.38-9.647 20.142-14.372 3.033-2.12 6.026-4.256 8.967-6.503l2.641-2c.717-.565 1.433-1.13 2.172-1.71C417 289 417 289 419.215 289.468Z" fill="#FEFEFE"/>
    <path d="M287 601h261v67H287v-67Z" fill="#FBFCFE"/>
    <path d="M288 539h260v37H288v-37ZM287 478h261v36H287v-36Z" fill="#FEFEFE"/>
    <path d="M797 532c3.571 2.793 6.816 5.776 10 9l1.926 1.86c11.926 12.375 15.649 29.002 15.347 45.656-.653 15.079-7.316 29.296-17.699 40.136-14.676 13.385-31.2 19.067-50.836 18.664-6.326-.301-11.908-1.88-17.738-4.316l-2.664-1.098c-17.676-8.071-27.38-22.402-34.504-39.746-4.73-14.39-2.403-31.41 3.563-45.004 8.227-16.153 20.695-27.572 37.98-33.527 18.492-5.858 38.642-2.436 54.625 8.375Zm-53 26-1.766 1.164c-5.929 4.402-9.29 10.859-11.234 17.836-1.15 11.293.433 19.961 7.625 28.813 5.473 5.79 12.636 9.672 20.637 10.39 9.889.191 17.455-2.397 24.738-9.203 7.46-8.152 9.618-15.596 9.348-26.598-.491-4.805-1.822-8.321-4.348-12.402l-1.25-2.113c-4.005-6.042-9.735-10.17-16.61-12.524-9.9-1.68-18.734-1.083-27.14 4.637Z" fill="#FDFDFE"/>
    <path d="M776.922 555.805c7.34 4.222 12.838 10.682 15.57 18.77 1.904 9.094 1.345 18.39-3.492 26.425-5.847 8.029-12.106 12.988-22 15-8.635.978-16.283-.826-23.52-5.695-6.47-5.302-9.862-11.452-12.48-19.305-.667-8.511-.554-15.642 4-23l1.25-2.113c8.865-13.373 26.495-16.795 40.672-10.082Z" fill="#227CE2"/>
</svg>
